<?xml version='1.0' encoding='iso-8859-1'?>
<!-- Uploaded to: SVG Repo, www.svgrepo.com, Generator: SVG Repo Mixer Tools -->
<svg fill="#000000" height="800px" width="800px" version="1.1" xmlns="http://www.w3.org/2000/svg" viewBox="0 0 470 470" xmlns:xlink="http://www.w3.org/1999/xlink" enable-background="new 0 0 470 470">
  <g>
    <path d="m224.488,167.73c10.369-10.37 24.181-16.081 38.891-16.081 14.71,0 28.522,5.711 38.891,16.081 1.464,1.464 3.384,2.196 5.303,2.196 1.919,0 3.839-0.732 5.303-2.196 2.929-2.93 2.929-7.678 0-10.607-13.202-13.202-30.781-20.474-49.498-20.474-18.716,0-36.295,7.271-49.497,20.474-2.929,2.93-2.929,7.678 0,10.607 2.93,2.928 7.679,2.928 10.607,0z"/>
    <path d="m139.286,303.815c-0.715,2.601 0.021,5.385 1.928,7.293l17.678,17.678c1.464,1.464 3.384,2.196 5.303,2.196s3.839-0.732 5.303-2.196c2.929-2.93 2.929-7.678 0-10.607l-8.349-8.349 9.306-2.361c16.457,3.171 34.52,4.859 52.393,4.859 28.479,0 80.792-4.548 111.242-34.996 38.99-38.991 38.99-102.432 0-141.422-18.887-18.888-44-29.289-70.71-29.289-26.711,0-51.824,10.401-70.711,29.289-17.389,17.389-28.839,44.89-33.114,79.53-3.082,24.971-2.324,53.284 2.013,78.809l-16.894,4.286c-2.616,0.663-4.673,2.68-5.388,5.28zm35.155-86.537c3.862-31.291 13.833-55.76 28.834-70.761 16.055-16.055 37.4-24.896 60.104-24.896 22.704,0 44.049,8.842 60.104,24.896 33.141,33.141 33.141,87.065 0,120.207-26.628,26.629-74.481,30.604-100.635,30.604-15.729,0-31.598-1.362-46.223-3.954-4.352-24.539-5.16-51.979-2.184-76.096z"/>
    <path d="m77.574,293.43c-2.929,2.93-2.929,7.678 0,10.607l88.389,88.388c1.464,1.464 3.384,2.196 5.303,2.196s3.839-0.732 5.303-2.196c2.929-2.93 2.929-7.678 0-10.607l-88.388-88.388c-2.929-2.927-7.678-2.927-10.607,0z"/>
    <path d="m467.803,2.196c-2.929-2.928-7.678-2.928-10.606,0l-54.8,54.8-31.82-31.82c-1.497-1.496-3.549-2.282-5.672-2.188l-107.833,5.304c-1.86,0.092-3.619,0.871-4.935,2.188l-197.544,197.542c-2.929,2.93-2.929,7.678-1.42109e-14,10.607 2.929,2.928 7.678,2.928 10.606,0l195.498-195.496 101.624-4.998 29.469,29.469-11.528,11.528c-2.989-1.429-6.274-2.208-9.685-2.208-6.01,0-11.66,2.34-15.91,6.59-8.772,8.772-8.772,23.047 0,31.82 4.25,4.249 9.899,6.59 15.91,6.59 6.01,0 11.66-2.341 15.91-6.591 6.91-6.911 8.352-17.227 4.375-25.588l11.535-11.535 29.469,29.469-4.998,101.624-242.591,242.59-166.17-166.17 25.88-25.88c2.929-2.93 2.929-7.678 0-10.607-2.929-2.928-7.678-2.928-10.606,0l-31.184,31.184c-1.407,1.407-2.197,3.314-2.197,5.303s0.79,3.896 2.197,5.304l176.777,176.776c1.464,1.464 3.384,2.196 5.303,2.196s3.839-0.732 5.303-2.196l249.94-249.939c1.316-1.316 2.096-3.076 2.188-4.936l5.303-107.834c0.104-2.114-0.69-4.175-2.188-5.672l-31.819-31.819 54.8-54.8c2.928-2.929 2.928-7.677-0.001-10.607zm-97.226,104.728c-2.003,0-3.887-0.78-5.303-2.196-2.924-2.925-2.924-7.684 0-10.607 0.613-0.613 1.317-1.099 2.077-1.462-1.331,2.788-0.85,6.224 1.459,8.533 1.464,1.464 3.384,2.196 5.303,2.196 1.105,0 2.207-0.251 3.225-0.736-0.357,0.75-0.837,1.455-1.457,2.075-1.418,1.416-3.301,2.197-5.304,2.197z"/>
  </g>
</svg>