<?xml version="1.0" encoding="iso-8859-1"?>
<!-- Uploaded to: SVG Repo, www.svgrepo.com, Generator: SVG Repo Mixer Tools -->
<!DOCTYPE svg PUBLIC "-//W3C//DTD SVG 1.1//EN" "http://www.w3.org/Graphics/SVG/1.1/DTD/svg11.dtd">
<svg fill="#000000" height="800px" width="800px" version="1.1" id="Capa_1" xmlns="http://www.w3.org/2000/svg" xmlns:xlink="http://www.w3.org/1999/xlink" 
	 viewBox="0 0 494.217 494.217" xml:space="preserve">
<g>
	<ellipse cx="233.139" cy="293.525" rx="39.399" ry="39.392"/>
	<path d="M461.024,267.275c-0.784-0.833-2.005-1.089-3.05-0.656l-24.964,10.448c-4.43-54.019-30.427-101.909-69.168-135.386
		l14.112-21.294c8.302-12.52,4.889-29.403-7.633-37.7c-12.556-8.341-29.41-4.896-37.701,7.632l-14.396,21.702
		c-17.99-8.491-37.436-14.335-57.89-17.124V72.531h3.401c20.029,0,36.265-16.238,36.265-36.266C300.002,16.238,283.766,0,263.737,0
		h-61.195c-20.028,0-36.27,16.238-36.27,36.266c0,20.027,16.241,36.266,36.27,36.266h3.396v22.375
		c-97.8,13.351-173.481,97.224-173.481,198.628c0,110.657,90.026,200.683,200.7,200.683c69.786,0,131.305-35.857,167.269-90.069
		c-8.785-1.577-16.36-6.915-20.33-15.043l-15.616-31.564c-23.801,48.624-73.648,82.278-131.322,82.278
		c-80.679,0-146.303-65.624-146.303-146.284c0-80.669,65.624-146.294,146.303-146.303c75.152,0,137.199,57.02,145.309,130.064
		l-25.531-10.678c-1.063-0.433-2.267-0.177-3.05,0.656c-0.796,0.832-0.972,2.063-0.46,3.081
		c19.018,38.496,17.621,35.646,53.198,107.609l0,0v0.009c0.528,1.072,1.624,1.753,2.834,1.753c1.204,0,2.3-0.681,2.828-1.753
		c43-86.962,31.932-64.589,53.199-107.618C461.977,269.337,461.801,268.107,461.024,267.275z"/>
</g>
</svg>