<?xml version="1.0" encoding="UTF-8" standalone="no"?>
<!DOCTYPE svg PUBLIC "-//W3C//DTD SVG 1.1//EN" "http://www.w3.org/Graphics/SVG/1.1/DTD/svg11.dtd">
<svg xmlns="http://www.w3.org/2000/svg" version="1.1" viewBox="0.00 0.00 512.00 512.00">
<path stroke="#100f0d" stroke-width="2.00" fill="none" stroke-linecap="butt" vector-effect="non-scaling-stroke" d="
  M 312.99 499.62
  Q 378.83 483.65 426.68 438.43
  C 469.89 397.59 498.11 341.77 503.78 281.88
  C 517.01 142.44 413.32 19.50 273.17 9.55
  C 210.20 5.08 146.57 25.87 98.25 66.06
  C -21.60 165.76 -21.75 347.82 97.31 448.18
  Q 141.70 485.59 199.91 499.44"
/>
<path fill="#1f1e1a" d="
  M 312.99 499.62
  Q 378.83 483.65 426.68 438.43
  C 469.89 397.59 498.11 341.77 503.78 281.88
  C 517.01 142.44 413.32 19.50 273.17 9.55
  C 210.20 5.08 146.57 25.87 98.25 66.06
  C -21.60 165.76 -21.75 347.82 97.31 448.18
  Q 141.70 485.59 199.91 499.44
  Q 200.23 500.38 199.92 502.02
  Q 199.83 502.54 199.31 502.42
  C 30.68 462.75 -48.56 268.85 44.67 122.01
  C 121.18 1.49 282.34 -29.32 399.11 50.41
  C 461.39 92.94 501.13 162.41 507.16 237.07
  C 517.22 361.76 435.17 472.65 314.54 502.39
  Q 312.98 502.77 312.99 499.62
  Z"
/>
<path fill="#000000" d="
  M 312.99 499.62
  Q 311.68 482.18 309.50 463.82
  C 307.36 445.87 307.54 423.60 308.02 409.00
  C 308.67 389.36 308.58 370.41 294.62 355.90
  Q 294.24 355.50 294.24 355.42
  A 1.03 1.02 -3.6 0 1 295.17 354.37
  C 335.41 350.77 372.58 333.51 384.42 291.60
  C 392.26 263.86 393.35 230.84 377.41 205.83
  C 375.11 202.21 371.67 198.11 368.65 194.35
  Q 368.34 193.96 368.49 193.48
  Q 377.06 165.93 366.53 139.16
  Q 366.36 138.74 365.93 138.60
  C 349.63 133.56 322.42 150.76 309.17 159.50
  A 1.06 1.04 35.1 0 1 308.32 159.64
  Q 256.21 145.83 204.13 159.66
  Q 203.64 159.80 203.21 159.51
  C 187.04 148.58 168.15 137.75 149.73 137.70
  C 145.16 137.69 145.29 140.52 144.20 143.85
  C 139.12 159.28 138.03 177.79 144.04 193.23
  C 144.44 194.25 142.97 195.31 142.54 195.82
  Q 124.31 217.41 122.83 245.01
  C 121.85 263.25 124.23 282.78 130.78 299.95
  C 144.81 336.76 180.67 350.97 217.18 354.46
  A 0.62 0.61 -6.7 0 1 217.70 354.86
  Q 217.88 355.35 217.51 355.76
  Q 207.22 367.15 205.30 382.22
  Q 205.14 383.50 203.98 384.06
  Q 191.21 390.20 177.10 389.13
  C 159.73 387.81 150.29 377.79 141.49 364.00
  C 134.00 352.24 119.66 341.91 105.04 345.51
  C 102.58 346.12 100.59 348.09 102.79 350.47
  C 107.35 355.42 114.67 359.27 119.25 364.25
  Q 126.95 372.62 131.45 383.06
  Q 135.19 391.76 136.07 393.22
  C 149.89 416.40 179.39 417.93 202.69 413.06
  A 1.07 1.06 -5.9 0 1 203.98 414.10
  Q 204.02 429.03 204.05 444.25
  C 204.06 451.78 202.68 461.47 202.28 466.58
  Q 201.04 482.60 199.91 499.44
  Q 141.70 485.59 97.31 448.18
  C -21.75 347.82 -21.60 165.76 98.25 66.06
  C 146.57 25.87 210.20 5.08 273.17 9.55
  C 413.32 19.50 517.01 142.44 503.78 281.88
  C 498.11 341.77 469.89 397.59 426.68 438.43
  Q 378.83 483.65 312.99 499.62
  Z"
/>
</svg>
