<?xml version="1.0" ?><!DOCTYPE svg  PUBLIC '-//W3C//DTD SVG 1.1//EN'  'http://www.w3.org/Graphics/SVG/1.1/DTD/svg11.dtd'><svg height="100%" style="fill-rule:evenodd;clip-rule:evenodd;stroke-linejoin:round;stroke-miterlimit:2;" version="1.1" viewBox="0 0 512 512" width="100%" xml:space="preserve" xmlns="http://www.w3.org/2000/svg" xmlns:serif="http://www.serif.com/" xmlns:xlink="http://www.w3.org/1999/xlink"><path d="M256,0c141.29,0 256,114.71 256,256c0,141.29 -114.71,256 -256,256c-141.29,0 -256,-114.71 -256,-256c0,-141.29 114.71,-256 256,-256Zm0,104.795c-88.732,0 -157.5,64.997 -157.5,152.779c0,45.919 18.824,85.595 49.469,113.007c2.566,2.313 4.119,5.514 4.246,8.968l0.856,28.014c0.285,8.937 9.506,14.736 17.683,11.155l31.246,-13.785c2.662,-1.172 5.609,-1.394 8.398,-0.634c14.355,3.961 29.662,6.053 45.602,6.053c88.732,0 157.5,-64.997 157.5,-152.778c0,-87.782 -68.768,-152.779 -157.5,-152.779Zm-94.563,197.462l46.267,-73.395c7.352,-11.661 23.134,-14.577 34.162,-6.306l36.792,27.602c3.391,2.536 8.018,2.504 11.377,-0.031l49.69,-37.712c6.623,-5.038 15.307,2.916 10.838,9.951l-46.236,73.363c-7.352,11.662 -23.133,14.577 -34.161,6.306l-36.792,-27.602c-3.392,-2.536 -8.018,-2.504 -11.377,0.032l-49.722,37.743c-6.623,5.038 -15.307,-2.916 -10.838,-9.951Z"/></svg>