<?xml version="1.0" encoding="UTF-8" standalone="no"?>
<!DOCTYPE svg PUBLIC "-//W3C//DTD SVG 1.1//EN" "http://www.w3.org/Graphics/SVG/1.1/DTD/svg11.dtd">
<svg xmlns="http://www.w3.org/2000/svg" version="1.1" viewBox="0.00 0.00 1025.00 1025.00">
<path stroke="#100f0d" stroke-width="2.00" fill="none" stroke-linecap="butt" vector-effect="non-scaling-stroke" d="
  M 1018.01 512.52
  A 498.52 498.52 0.0 0 0 519.49 14.00
  A 498.52 498.52 0.0 0 0 20.97 512.52
  A 498.52 498.52 0.0 0 0 519.49 1011.04
  A 498.52 498.52 0.0 0 0 1018.01 512.52"
/>
<path fill="#1f1e1a" d="
  M 1021.00 512.51
  A 501.50 501.50 0.0 0 1 519.50 1014.01
  A 501.50 501.50 0.0 0 1 18.00 512.51
  A 501.50 501.50 0.0 0 1 519.50 11.01
  A 501.50 501.50 0.0 0 1 1021.00 512.51
  Z
  M 1018.01 512.52
  A 498.52 498.52 0.0 0 0 519.49 14.00
  A 498.52 498.52 0.0 0 0 20.97 512.52
  A 498.52 498.52 0.0 0 0 519.49 1011.04
  A 498.52 498.52 0.0 0 0 1018.01 512.52
  Z"
/>
<path fill="#000000" d="
  M 1018.01 512.52
  A 498.52 498.52 0.0 0 1 519.49 1011.04
  A 498.52 498.52 0.0 0 1 20.97 512.52
  A 498.52 498.52 0.0 0 1 519.49 14.00
  A 498.52 498.52 0.0 0 1 1018.01 512.52
  Z
  M 159.52 664.23
  C 169.08 686.05 192.78 703.86 216.75 705.83
  C 236.91 707.50 264.26 707.96 289.56 707.97
  Q 512.25 708.05 734.93 707.97
  C 756.45 707.97 783.15 707.45 798.06 706.63
  C 810.28 705.96 821.97 705.27 831.57 700.59
  C 848.84 692.17 867.54 674.14 870.96 653.99
  Q 872.22 646.64 872.51 636.68
  C 874.93 554.79 874.94 472.46 872.48 390.57
  C 872.14 379.43 871.24 367.58 866.43 359.05
  Q 856.11 340.76 837.81 329.02
  C 827.27 322.26 816.41 320.24 803.99 319.77
  Q 765.26 318.31 746.75 318.29
  Q 516.03 317.95 285.31 318.03
  C 264.14 318.04 244.00 318.93 221.25 319.93
  Q 191.26 321.24 172.02 343.54
  C 159.76 357.75 153.92 370.55 152.94 389.50
  Q 152.11 405.58 151.97 421.68
  Q 151.59 465.35 152.49 509.00
  C 153.15 541.04 152.40 573.19 153.65 605.19
  C 154.01 614.52 153.92 624.35 154.46 633.12
  C 155.10 643.43 155.49 655.03 159.52 664.23
  Z"
/>
<path fill="#000000" d="
  M 675.17 423.90
  C 662.62 421.91 650.59 407.27 657.64 394.67
  C 665.62 380.39 673.09 377.75 689.44 377.08
  Q 741.32 374.96 756.50 375.25
  Q 772.55 375.57 786.24 377.02
  C 798.43 378.31 807.93 382.39 813.50 393.95
  C 816.73 400.65 816.44 405.14 812.44 411.56
  C 806.94 420.38 801.42 424.31 790.82 425.09
  Q 781.94 425.75 773.06 425.86
  Q 729.90 426.40 686.75 425.37
  Q 684.04 425.30 675.17 423.90
  Z"
/>
<path fill="#000000" d="
  M 294.94 428.56
  C 283.10 427.70 269.98 429.43 265.12 442.10
  C 257.47 462.05 261.25 484.77 259.50 508.34
  C 258.66 519.76 256.21 528.55 246.59 534.60
  Q 233.26 542.99 221.47 531.98
  C 211.14 522.35 209.60 510.28 209.06 495.27
  Q 208.50 479.87 210.01 460.25
  Q 213.85 410.30 256.71 386.16
  C 284.80 370.33 314.92 377.98 340.93 393.83
  C 345.80 396.79 349.46 395.78 354.56 393.06
  C 365.16 387.40 375.19 381.49 387.49 379.14
  C 416.94 373.52 444.85 384.62 463.05 408.06
  C 480.44 430.46 484.85 456.35 485.11 484.26
  C 485.27 500.03 483.42 540.39 458.36 538.34
  C 437.86 536.67 436.16 519.56 435.18 502.68
  Q 434.10 484.31 432.87 465.94
  Q 431.86 450.99 427.80 440.49
  C 422.93 427.93 407.01 427.48 395.19 428.89
  C 376.31 431.15 373.23 449.54 373.14 465.19
  Q 373.03 483.03 372.28 500.85
  Q 371.67 515.38 370.53 519.02
  C 366.15 532.97 348.82 543.82 334.90 534.42
  Q 322.17 525.83 322.13 508.81
  Q 322.08 490.73 320.94 463.25
  C 320.18 444.70 316.78 430.16 294.94 428.56
  Z"
/>
<path fill="#000000" d="
  M 538.67 418.08
  C 528.28 408.55 528.05 399.61 536.39 388.65
  C 540.53 383.21 545.62 379.76 552.51 378.34
  C 565.29 375.71 581.57 379.35 589.44 390.20
  C 595.00 397.87 594.76 408.65 588.26 415.86
  C 576.51 428.91 551.60 429.94 538.67 418.08
  Z"
/>
<path fill="#000000" d="
  M 573.75 537.75
  C 559.92 537.22 549.30 527.64 543.30 515.90
  C 541.99 513.34 542.39 511.08 543.84 508.81
  C 549.61 499.75 556.45 491.57 567.74 489.78
  Q 576.91 488.33 591.31 488.28
  Q 672.32 487.97 753.33 488.01
  C 765.29 488.02 777.14 487.82 789.06 489.13
  C 800.40 490.38 806.82 493.85 812.80 503.22
  Q 815.86 508.02 815.81 512.49
  C 815.57 532.46 797.14 536.84 781.06 537.63
  Q 769.19 538.21 732.03 539.17
  C 723.57 539.39 712.22 539.15 708.85 548.54
  Q 706.14 556.09 706.09 564.94
  C 705.99 581.22 706.81 598.10 705.66 614.30
  C 704.62 629.05 701.98 637.04 689.74 646.12
  C 684.18 650.25 681.17 652.92 674.94 648.84
  C 664.32 641.90 657.10 634.06 655.89 621.43
  Q 654.66 608.55 655.17 592.18
  C 655.57 579.43 655.65 563.41 653.31 551.75
  C 651.47 542.58 641.62 539.12 633.43 539.07
  Q 603.59 538.89 573.75 537.75
  Z"
/>
<path fill="#000000" d="
  M 296.98 601.63
  C 310.38 605.43 319.07 622.07 313.43 634.95
  C 307.71 648.03 291.45 649.50 279.06 650.57
  Q 257.45 652.42 235.94 649.06
  C 226.93 647.65 219.34 644.53 214.77 636.45
  C 206.76 622.29 218.02 603.64 233.02 601.05
  Q 234.70 600.76 241.01 600.56
  Q 258.37 600.02 275.75 600.04
  C 282.43 600.05 291.82 600.16 296.98 601.63
  Z"
/>
<path fill="#000000" d="
  M 385.44 641.56
  Q 374.36 630.43 381.44 615.92
  C 389.40 599.59 402.63 600.79 421.19 600.49
  Q 468.24 599.74 515.29 600.10
  C 534.11 600.24 552.98 600.29 571.00 601.69
  C 575.42 602.04 580.49 603.09 584.11 605.89
  C 603.14 620.58 591.10 645.65 570.02 648.51
  Q 557.73 650.19 539.31 650.55
  C 496.35 651.39 452.78 652.02 409.93 648.64
  C 401.16 647.95 391.28 647.43 385.44 641.56
  Z"
/>
<path fill="#000000" d="
  M 782.42 646.37
  C 769.46 638.70 761.52 624.27 771.56 610.81
  C 778.60 601.39 791.66 596.69 802.57 603.91
  C 810.46 609.15 816.34 619.38 815.27 628.78
  C 814.14 638.77 804.96 645.98 796.43 649.88
  C 791.69 652.05 786.40 648.73 782.42 646.37
  Z"
/>
</svg>
