<?xml version="1.0" standalone="no"?>
<!DOCTYPE svg PUBLIC "-//W3C//DTD SVG 20010904//EN"
 "http://www.w3.org/TR/2001/REC-SVG-20010904/DTD/svg10.dtd">
<svg version="1.0" xmlns="http://www.w3.org/2000/svg"
 width="1067.000000pt" height="1067.000000pt" viewBox="0 0 1067.000000 1067.000000"
 preserveAspectRatio="xMidYMid meet">

<g transform="translate(0.000000,1067.000000) scale(0.100000,-0.100000)"
fill="#000000" stroke="none">
<path d="M5215 10330 c-128 -20 -216 -57 -426 -177 -1656 -951 -3543 -2048
-3594 -2090 -90 -74 -159 -163 -215 -278 -94 -192 -84 65 -88 -2400 -2 -1596
0 -2200 8 -2253 32 -205 144 -404 299 -529 58 -46 3708 -2161 3804 -2203 101
-45 195 -63 332 -63 140 0 236 19 341 67 108 50 3737 2152 3795 2199 89 72
164 169 219 282 94 192 84 -67 88 2420 3 2406 6 2272 -54 2418 -57 142 -181
300 -294 377 -76 51 -3691 2137 -3755 2166 -123 57 -325 84 -460 64z m458
-2056 c546 -59 1065 -274 1507 -624 135 -106 363 -335 470 -470 99 -124 242
-339 238 -357 -2 -7 -266 -165 -588 -351 -322 -186 -606 -350 -632 -366 l-46
-27 -63 93 c-82 120 -266 305 -384 385 -173 117 -345 189 -555 234 -87 19
-136 23 -285 23 -149 0 -198 -4 -285 -23 -294 -63 -536 -190 -744 -390 -172
-166 -301 -370 -375 -589 -58 -175 -74 -277 -74 -477 0 -147 4 -199 21 -281
67 -310 194 -546 412 -764 218 -218 454 -345 764 -412 146 -31 417 -31 563 0
315 68 570 207 784 428 42 44 103 117 137 164 34 47 67 93 74 102 12 16 73
-18 643 -348 469 -271 630 -369 629 -382 0 -10 -35 -70 -76 -133 -439 -658
-1123 -1120 -1883 -1274 -374 -76 -824 -76 -1186 1 -468 98 -878 290 -1252
586 -128 101 -359 333 -459 458 -357 450 -567 955 -633 1520 -19 162 -19 508
0 670 66 565 276 1070 633 1520 100 125 331 357 459 458 627 496 1382 713
2186 626z m2517 -2034 l0 -170 245 0 245 0 0 170 0 170 210 0 210 0 2 -167 3
-168 168 -3 167 -2 0 -205 0 -205 -167 -2 -168 -3 -3 -247 -2 -248 170 0 170
0 0 -210 0 -210 -170 0 -170 0 0 -170 0 -170 -207 2 -208 3 -3 168 -2 167
-245 0 -245 0 -2 -167 -3 -168 -207 -3 -208 -2 0 170 0 170 -170 0 -170 0 2
208 3 207 168 3 167 2 0 250 0 250 -170 0 -170 0 0 205 0 205 170 0 170 0 0
170 0 170 210 0 210 0 0 -170z"/>
<path d="M8190 5410 l0 -250 245 0 245 0 0 250 0 250 -245 0 -245 0 0 -250z"/>
</g>
</svg>
